PathFileType	4	(X/Y/Z)	D:\Long Term Storage\D'Arcy Smith\Coord13.trc
DataRate	CameraRate	NumFrames	NumMarkers	Units	OrigDataRate	OrigDataStartFrame	OrigNumFrames
120.00	120.00	      110	4	mm	120.00	2398	      4795
Frame#	Time	M1			M2			M3			M4			
		X1	Y1	Z1	X2	Y2	Z2	X3	Y3	Z3	X4	Y4	Z4	

2398	19.975	1014.09705	266.45447	364.46277	1656.64368	266.98938	496.25592							
2399	19.983	1014.19366	264.07773	374.25534	1656.35120	267.14291	484.89529							
2400	19.992	1014.64606	262.11813	384.15662	1656.00769	267.39050	472.90683							
2401	20.000	1014.88654	260.43774	394.26016	1655.70935	268.19849	461.38635							
2402	20.008	1015.26495	258.95020	404.29224	1655.21692	269.33694	449.80502							
2403	20.017	1015.40350	257.62897	413.92636	1654.72388	270.83627	438.19562							
2404	20.025	1015.79565	256.60626	423.58032	1654.31055	272.60382	426.59628							
2405	20.033	1016.43048	255.88380	433.58105	1653.89380	274.87430	415.15839							
2406	20.042	1016.41248	255.29640	442.59616	1653.52405	277.37439	403.79282							
2407	20.050	1016.61432	255.07234	451.92480	1653.21948	280.12164	392.44022							
2408	20.058	1016.92682	254.95071	460.98334	1652.91162	283.05408	381.33737							
2409	20.067	1016.96063	255.43634	469.62518	1652.82922	286.50870	370.43103							
2410	20.075	1017.53119	256.01263	478.32571	1652.42639	289.86713	359.66858							
2411	20.083	1017.16937	256.93896	486.09454	1652.43372	293.56949	349.31985							
2412	20.092	1017.08813	257.93384	493.74728	1652.42017	297.49542	338.95563							
2413	20.100	1016.97424	259.26266	501.29797	1652.27429	301.20685	330.03113							
2414	20.108	1016.47296	260.29849	507.69965	1652.55469	305.36765	320.56412							
2415	20.117	1015.80481	262.18643	513.51990	1652.80688	309.44852	311.58740							
2416	20.125	1015.49805	263.51492	519.38318	1653.44568	313.62173	303.06723							
2417	20.133	1015.00269	264.81506	524.93201	1653.71423	317.82867	295.11169							
2418	20.142	1014.54950	266.15005	529.80371	1654.13245	322.01181	287.30212							
2419	20.150	1013.76819	267.00540	534.40790	1654.50330	326.10428	280.14545							
2420	20.158	1012.95178	268.33575	538.33313	1655.11401	330.12579	273.63907							
2421	20.167	1012.20081	269.36310	541.91882	1655.74536	334.00092	267.58185							
2422	20.175	1011.46484	270.61426	544.80981	1656.67896	337.85962	262.02298							
2423	20.183	1010.53595	271.70569	547.51245	1657.64294	341.47552	257.20956							
2424	20.192	1009.57776	272.66476	549.54718	1658.65320	344.78409	252.87831							
2425	20.200	1008.37683	273.41641	550.94397	1659.53333	347.51935	249.09679							
2426	20.208	1007.26294	273.98975	551.95294	1660.88867	350.30121	245.91046							
2427	20.217	1006.14655	274.44809	552.57513	1662.08850	352.57617	243.35794							
2428	20.225	1005.11359	274.78650	552.53699	1663.40369	354.47427	241.34859							
2429	20.233	1003.98706	274.93341	552.04358	1664.77051	356.00269	240.02084							
2430	20.242	1002.76910	274.89377	551.04608	1666.31445	357.30756	239.14200							
2431	20.250	1001.85864	274.79782	549.68311	1667.64612	358.11224	238.81413							
2432	20.258	1000.64178	274.55286	547.88715	1669.15002	358.38358	239.02319							
2433	20.267	999.49347	274.05933	545.53259	1670.71216	358.34149	239.79861							
2434	20.275	998.49768	273.44629	542.81897	1672.10999	357.82562	240.97162							
2435	20.283	997.41577	272.83389	539.63989	1673.51392	356.98535	242.75424							
2436	20.292	996.50031	272.15350	536.11383	1674.92529	355.68253	244.99263							
2437	20.300	995.46075	271.28836	532.29474	1676.15845	354.01706	247.70470							
2438	20.308	994.70209	270.40384	527.99658	1677.53760	352.15939	250.86238							
2439	20.317	994.13440	269.71701	523.35858	1678.64624	349.67987	254.39302							
2440	20.325	993.22949	268.70212	518.38922	1679.83630	347.22208	258.40494							
2441	20.333	992.64465	267.88251	513.18872	1680.91626	344.11813	262.79730							
2442	20.342	991.93018	266.96771	507.91144	1681.87061	340.85800	267.70264							
2443	20.350	991.77484	265.51086	502.25473	1682.89917	337.48297	272.94769							
2444	20.358	991.41986	264.79141	496.19098	1683.80896	333.61441	278.64151							
2445	20.367	991.07947	264.06769	489.90442	1684.56641	329.54788	284.70157							
2446	20.375	990.62231	263.41104	483.28281	1685.16211	325.59918	291.33267							
2447	20.383	990.51239	263.04950	476.55072	1685.53271	321.26367	298.27573							
2448	20.392	990.83826	262.73087	469.88852	1685.97998	316.78302	305.68170							
2449	20.400	990.93347	262.60849	463.03207	1686.39575	312.25766	313.68610							
2450	20.408	991.03461	262.53470	456.07245	1686.41846	307.68839	322.24225							
2451	20.417	991.29596	262.72708	448.87524	1686.53210	303.11499	331.25949							
2452	20.425	991.61273	262.91971	441.40082	1686.60693	298.70984	339.88202							
2453	20.433	991.85089	263.22717	433.93851	1686.57080	294.27896	349.84024							
2454	20.442	992.28839	263.98111	426.45801	1686.30579	289.99228	360.27945							
2455	20.450	992.94043	264.83212	419.34601	1685.95410	285.77200	371.15182							
2456	20.458	993.52252	265.71539	411.62631	1685.52014	281.83252	382.47504							
2457	20.467	994.33411	266.86246	404.10117	1684.98853	278.06424	394.27850							
2458	20.475	995.07617	268.25220	396.53079	1684.26794	274.71838	406.52905							
2459	20.483	996.20056	269.63324	388.99350	1683.44690	271.71683	419.09805							
2460	20.492	997.01819	271.38611	381.25421	1682.42773	269.03439	432.14563							
2461	20.500	998.20013	273.15854	373.58820	1681.23547	266.85165	445.47650							
2462	20.508	999.63098	275.10031	365.74997	1679.92480	265.14114	458.92773							
2463	20.517	1001.10876	277.05319	357.91382	1678.40454	263.86481	472.68204							
2464	20.525	1002.59155	279.28201	350.18030	1676.74597	263.26410	487.02960							
2465	20.533	1003.95734	281.49792	342.52151	1675.10364	263.11780	500.98041							
2466	20.542	1005.28772	284.61707	333.93494	1673.21667	263.46841	515.13654							
2467	20.550	1006.99426	287.24487	326.19653	1671.35437	264.34286	529.12604							
2468	20.558	1008.94537	290.04373	317.88062	1669.46960	265.64474	542.91455							
2469	20.567	1010.68719	292.98770	310.04782	1667.75403	267.85559	556.72003							
2470	20.575	1012.58252	296.00388	302.25916	1665.14258	270.04532	570.39227							
2471	20.583	1014.62537	299.12582	294.37637	1663.38745	273.14423	583.64093							
2472	20.592	1016.74182	302.50781	286.72409	1661.24182	276.19684	596.29559							
2473	20.600	1018.64618	305.86877	279.12994	1658.69373	279.81912	608.82159							
2474	20.608	1020.84583	309.39938	271.60013	1655.99243	283.37436	621.05078							
2475	20.617	1022.85632	312.91385	264.21515	1654.07361	288.14877	632.09027							
2476	20.625	1024.72632	316.50104	257.17514	1651.64343	292.76529	643.08716							
2477	20.633	1026.83276	320.27689	250.21474	1648.62415	297.36108	653.44788							
2478	20.642	1028.75806	324.06403	243.42081	1646.53101	303.41147	663.50800							
2479	20.650	1030.57434	327.78247	236.98727	1643.86243	307.97424	672.57831							
2480	20.658	1032.46082	331.50000	230.73050	1641.53271	313.39267	681.22864							
2481	20.667	1034.02490	335.21140	224.87904	1639.75952	319.25778	689.30756							
2482	20.675	1035.63989	338.81073	219.21152	1637.58337	324.54343	696.75305							
2483	20.683	1037.29810	342.36081	214.04927	1635.52747	329.81866	703.67426							
2484	20.692	1038.57605	345.77853	209.13777	1634.13806	335.33975	709.76819							
2485	20.700	1039.79773	349.13724	204.57391	1632.23181	340.17984	715.51495							
2486	20.708	1040.96558	352.34485	200.47282	1630.61963	344.71222	720.77802							
2487	20.717	1041.89856	355.31244	196.64078	1628.35071	348.22495	725.62671							
2488	20.725	1042.83435	358.25333	193.29654	1626.90454	352.02429	729.84906							
2489	20.733	1043.10388	360.84406	190.26575	1625.73669	355.44269	733.52533							
2490	20.742	1043.62500	363.26147	187.65620	1624.58411	358.42371	736.81171							
2491	20.750	1044.08972	365.32672	185.48158	1623.74097	361.05313	739.50385							
2492	20.758	1044.51147	367.29398	183.62560	1622.88269	363.51932	741.97833							
2493	20.767	1044.62939	368.86377	182.16545	1622.46240	364.94095	743.71252							
2494	20.775	1044.59839	370.15512	181.16960	1622.07104	366.08682	745.28540							
2495	20.783	1044.59326	371.27579	180.41496	1622.44763	367.47226	746.19672							
2496	20.792	1044.09558	372.36823	179.96817	1622.44495	367.82800	746.79919							
2497	20.800	1043.64246	372.69766	180.02982	1622.69873	367.77527	747.01794							
2498	20.808	1043.34082	373.02863	180.26736	1622.92078	367.31467	746.87726							
2499	20.817	1043.25439	373.31485	180.64485	1623.41650	366.43735	746.25848							
2500	20.825	1042.81836	373.05762	181.40306	1624.21960	365.13150	745.18005							
2501	20.833	1042.47205	372.41623	182.33702	1625.04309	363.55685	743.76752							
2502	20.842	1041.97876	371.62234	183.71046	1625.99902	361.50229	741.95813							
2503	20.850	1041.03455	370.32568	185.28471	1627.02844	359.18262	739.73553							
2504	20.858	1041.21448	369.28903	186.88106	1628.25330	356.59787	737.12262							
2505	20.867	1040.52637	367.85324	188.71744	1629.69226	353.62000	734.10254							
2506	20.875	1039.85950	366.27899	190.82072	1631.06946	350.75433	730.81970							
2507	20.883	1039.38159	364.53046	192.97014	1632.62939	347.03308	726.78076							
